<svg aria-hidden="true" style="position: absolute; width: 0; height: 0; overflow: hidden;" version="1.1" xmlns="http://www.w3.org/2000/svg" xmlns:xlink="http://www.w3.org/1999/xlink">
<defs>
<symbol id="icon-day" viewBox="0 0 32 32">
<path d="M8.146 8.353c0.196 0.189 0.508 0.187 0.701-0.006s0.195-0.505 0.006-0.701l-3-3c-0.196-0.189-0.508-0.187-0.701 0.006s-0.196 0.505-0.006 0.701z"></path>
<path d="M6 16c0-0.276-0.224-0.5-0.5-0.5h-4c-0.276 0-0.5 0.224-0.5 0.5s0.224 0.5 0.5 0.5h4c0.276 0 0.5-0.224 0.5-0.5z"></path>
<path d="M8.146 23.646l-3 3c-0.13 0.125-0.182 0.312-0.136 0.486s0.182 0.311 0.357 0.357c0.175 0.046 0.361-0.006 0.486-0.136l3-3c0.189-0.196 0.187-0.508-0.006-0.701s-0.505-0.195-0.701-0.006z"></path>
<path d="M28.725 18.686c-0.911 0.589-1.98 0.885-3.065 0.85-3.282-0.043-5.91-2.735-5.875-6.017 0.022-2.533 1.574-4.801 3.927-5.739 0.199-0.076 0.328-0.268 0.322-0.48s-0.145-0.398-0.347-0.463c-0.939-0.256-1.912-0.37-2.885-0.336-1.502 0.002-2.981 0.375-4.303 1.087v-6.087c0-0.276-0.224-0.5-0.5-0.5s-0.5 0.224-0.5 0.5v5.053c-4.829 0.515-8.493 4.59-8.493 9.446s3.663 8.931 8.493 9.446v5.053c0 0.276 0.224 0.5 0.5 0.5s0.5-0.224 0.5-0.5v-6.087c2.37 1.274 5.182 1.437 7.683 0.445s4.437-3.038 5.289-5.59c0.070-0.203 0.003-0.427-0.166-0.558s-0.403-0.14-0.581-0.023zM8 16c0.007-4.304 3.226-7.925 7.5-8.436v16.872c-4.274-0.511-7.493-4.132-7.5-8.436zM20.803 24.5c-1.522-0-3.013-0.429-4.303-1.236v-14.528c1.29-0.807 2.781-1.236 4.303-1.236 0.386 0 0.797 0.008 1.206 0.040-1.992 1.341-3.198 3.576-3.224 5.977-0.035 3.834 3.041 6.973 6.875 7.017 0.796 0.013 1.587-0.113 2.34-0.373-1.395 2.681-4.174 4.356-7.196 4.338z"></path>
<path d="M30.974 11.633c-0.060-0.178-0.214-0.308-0.4-0.336l-1.809-0.277-0.814-1.733c-0.082-0.176-0.259-0.287-0.453-0.287s-0.37 0.112-0.453 0.287l-0.814 1.733-1.809 0.277c-0.185 0.028-0.339 0.158-0.398 0.335s-0.015 0.373 0.116 0.507l1.326 1.359-0.313 1.922c-0.031 0.189 0.049 0.379 0.205 0.489s0.362 0.121 0.529 0.029l1.613-0.894 1.613 0.891c0.074 0.041 0.157 0.063 0.241 0.063 0.147 0 0.286-0.064 0.381-0.176s0.136-0.259 0.113-0.404l-0.313-1.919 1.324-1.356c0.132-0.135 0.177-0.332 0.116-0.51zM28.642 12.98c-0.111 0.113-0.161 0.273-0.135 0.429l0.188 1.155-0.954-0.527c-0.15-0.083-0.332-0.083-0.483 0l-0.954 0.527 0.188-1.155c0.026-0.156-0.025-0.316-0.135-0.429l-0.82-0.841 1.111-0.17c0.165-0.025 0.306-0.13 0.377-0.281l0.475-1.011 0.475 1.011c0.071 0.151 0.212 0.256 0.377 0.281l1.111 0.17z"></path>
</symbol>
<symbol id="icon-moon" viewBox="0 0 32 32">
<path d="M28.573 24.683c-0.001-0.016-0.002-0.032-0.004-0.047s-0.004-0.032-0.007-0.048c-0.002-0.009-0.002-0.019-0.004-0.028-0.001-0.005-0.003-0.010-0.004-0.015-0.003-0.016-0.008-0.032-0.012-0.049-0.004-0.014-0.007-0.028-0.012-0.042-0.005-0.015-0.010-0.030-0.016-0.044s-0.011-0.029-0.017-0.042c-0.006-0.014-0.013-0.027-0.020-0.041s-0.013-0.028-0.021-0.041c-0.007-0.013-0.015-0.026-0.023-0.039s-0.016-0.026-0.025-0.039c-0.009-0.012-0.018-0.024-0.027-0.037s-0.018-0.024-0.028-0.036c-0.010-0.011-0.020-0.022-0.030-0.033s-0.021-0.023-0.033-0.034c-0.010-0.010-0.021-0.020-0.032-0.029-0.012-0.011-0.025-0.022-0.038-0.032-0.004-0.003-0.008-0.007-0.012-0.010-0.008-0.006-0.016-0.011-0.024-0.016-0.013-0.009-0.026-0.018-0.039-0.027s-0.028-0.017-0.042-0.025c-0.012-0.007-0.024-0.014-0.036-0.020-0.015-0.008-0.031-0.015-0.047-0.022-0.012-0.005-0.024-0.010-0.036-0.015-0.016-0.006-0.032-0.012-0.049-0.018-0.013-0.004-0.026-0.008-0.038-0.012-0.016-0.005-0.032-0.009-0.048-0.012-0.014-0.003-0.028-0.006-0.043-0.009s-0.030-0.005-0.046-0.007c-0.015-0.002-0.031-0.004-0.046-0.005s-0.030-0.002-0.045-0.003c-0.015-0-0.031-0.001-0.046-0s-0.032 0.001-0.048 0.002c-0.014 0.001-0.028 0.002-0.043 0.004-0.018 0.002-0.036 0.005-0.054 0.008-0.008 0.001-0.016 0.002-0.024 0.003-0.752 0.148-1.524 0.223-2.294 0.223-7.554 0-13.699-7.173-13.699-15.99 0-2.194 0.374-4.319 1.112-6.317 0.002-0.006 0.003-0.011 0.005-0.017 0.006-0.016 0.011-0.033 0.015-0.050 0.004-0.013 0.008-0.027 0.011-0.040 0.004-0.016 0.007-0.032 0.010-0.049 0.003-0.014 0.005-0.029 0.007-0.043s0.003-0.031 0.005-0.046c0.001-0.016 0.003-0.031 0.003-0.047 0.001-0.014 0-0.028 0-0.043-0-0.017-0-0.034-0.001-0.050-0.001-0.013-0.002-0.026-0.004-0.039-0.002-0.018-0.004-0.036-0.007-0.054-0.002-0.012-0.005-0.024-0.007-0.037-0.004-0.018-0.008-0.037-0.013-0.055-0.001-0.005-0.002-0.010-0.004-0.016-0.002-0.007-0.005-0.014-0.007-0.021-0.005-0.017-0.011-0.034-0.017-0.050-0.005-0.014-0.011-0.027-0.016-0.041s-0.012-0.028-0.019-0.041c-0.007-0.015-0.015-0.029-0.023-0.043-0.007-0.012-0.014-0.023-0.021-0.035-0.009-0.015-0.018-0.029-0.028-0.043-0.008-0.011-0.016-0.022-0.024-0.033-0.010-0.013-0.020-0.026-0.031-0.038-0.009-0.011-0.019-0.022-0.029-0.033s-0.020-0.022-0.031-0.032c-0.011-0.011-0.023-0.022-0.036-0.033-0.010-0.009-0.021-0.018-0.031-0.027-0.013-0.010-0.026-0.020-0.040-0.030-0.011-0.008-0.022-0.016-0.034-0.023-0.014-0.009-0.027-0.017-0.042-0.026-0.013-0.008-0.026-0.015-0.040-0.022s-0.026-0.013-0.040-0.019c-0.016-0.007-0.032-0.014-0.048-0.021-0.007-0.003-0.014-0.006-0.021-0.009-0.005-0.002-0.011-0.003-0.016-0.005-0.017-0.006-0.035-0.011-0.053-0.017-0.012-0.003-0.025-0.007-0.037-0.010-0.017-0.004-0.034-0.007-0.052-0.011-0.013-0.002-0.027-0.005-0.040-0.007-0.016-0.002-0.033-0.004-0.049-0.005-0.015-0.001-0.029-0.003-0.044-0.003s-0.031-0-0.046-0c-0.016 0-0.031 0-0.047 0.001-0.014 0.001-0.029 0.003-0.043 0.004-0.017 0.002-0.033 0.004-0.050 0.006-0.014 0.002-0.027 0.005-0.041 0.008-0.017 0.004-0.034 0.007-0.050 0.012-0.006 0.002-0.012 0.002-0.018 0.004-3.231 0.93-6.141 2.921-8.193 5.606-2.12 2.776-3.241 6.093-3.241 9.594 0 4.224 1.645 8.196 4.632 11.183s6.959 4.632 11.183 4.632c2.505 0 4.902-0.569 7.122-1.691 2.108-1.065 3.983-2.62 5.425-4.497 0-0.001 0.001-0.001 0.002-0.002 0.006-0.008 0.012-0.016 0.019-0.024 0.005-0.006 0.009-0.013 0.014-0.020 0.011-0.015 0.021-0.030 0.031-0.045 0.008-0.012 0.014-0.023 0.021-0.035 0.008-0.014 0.016-0.029 0.024-0.043 0.007-0.013 0.013-0.027 0.019-0.040s0.012-0.028 0.018-0.043c0.006-0.014 0.011-0.028 0.015-0.042s0.010-0.030 0.014-0.045c0.004-0.014 0.008-0.028 0.011-0.042 0.004-0.016 0.007-0.032 0.010-0.048 0.002-0.013 0.005-0.027 0.006-0.040 0.002-0.017 0.004-0.034 0.006-0.051 0.001-0.013 0.002-0.027 0.002-0.040 0.001-0.017 0.001-0.034 0.001-0.051-0-0.014-0.001-0.028-0.002-0.043zM22.091 28.159c-1.956 0.988-4.068 1.489-6.276 1.489-3.723 0-7.223-1.45-9.856-4.082s-4.082-6.133-4.082-9.856c0-3.086 0.987-6.009 2.856-8.454 1.437-1.88 3.349-3.373 5.502-4.319-0.43 1.651-0.648 3.365-0.648 5.117 0 4.747 1.604 9.216 4.516 12.584 2.946 3.407 6.874 5.283 11.060 5.283 0.047 0 0.093-0.001 0.14-0.002-0.961 0.892-2.046 1.651-3.211 2.24z"></path>
<path d="M24.538 4.974c-0.135-0.415-0.487-0.712-0.919-0.775l-2.378-0.345-1.063-2.155c-0.193-0.391-0.584-0.635-1.021-0.635s-0.828 0.243-1.021 0.635l-1.064 2.155-2.378 0.346c-0.432 0.063-0.784 0.36-0.919 0.775s-0.024 0.862 0.288 1.167l1.721 1.677-0.406 2.368c-0.074 0.43 0.1 0.857 0.453 1.114s0.812 0.29 1.199 0.087l2.127-1.118 2.127 1.118c0.168 0.088 0.35 0.132 0.531 0.132 0.235 0 0.469-0.074 0.668-0.219 0.353-0.257 0.527-0.683 0.453-1.114l-0.406-2.368 1.721-1.677c0.313-0.305 0.423-0.752 0.288-1.167zM20.941 6.745c-0.268 0.262-0.391 0.638-0.328 1.008l0.219 1.276-1.146-0.603c-0.332-0.174-0.728-0.174-1.060 0l-1.146 0.603 0.219-1.277c0.063-0.37-0.059-0.746-0.327-1.008l-0.927-0.904 1.282-0.186c0.371-0.054 0.691-0.287 0.857-0.623l0.573-1.161 0.573 1.161c0.166 0.336 0.486 0.569 0.857 0.623l1.282 0.186-0.927 0.904z"></path>
<path d="M31.944 15.234c-0.135-0.415-0.487-0.712-0.919-0.775l-2.378-0.345-1.063-2.155c-0.193-0.391-0.584-0.635-1.021-0.635s-0.828 0.243-1.021 0.635l-1.064 2.155-2.378 0.345c-0.432 0.063-0.784 0.36-0.919 0.775s-0.024 0.862 0.288 1.167l1.721 1.677-0.406 2.368c-0.074 0.43 0.1 0.857 0.453 1.114s0.813 0.29 1.199 0.087l2.127-1.118 2.127 1.118c0.168 0.088 0.35 0.132 0.531 0.132 0.235 0 0.469-0.074 0.668-0.219 0.353-0.257 0.527-0.683 0.453-1.113l-0.406-2.368 1.721-1.677c0.313-0.305 0.423-0.752 0.288-1.167zM28.347 17.005c-0.268 0.262-0.391 0.638-0.328 1.008l0.219 1.276-1.146-0.603c-0.166-0.087-0.348-0.131-0.53-0.131s-0.364 0.044-0.53 0.131l-1.146 0.603 0.219-1.277c0.063-0.369-0.059-0.746-0.327-1.008l-0.927-0.904 1.282-0.186c0.371-0.054 0.692-0.287 0.857-0.623l0.573-1.161 0.573 1.162c0.166 0.336 0.486 0.568 0.857 0.622l1.282 0.186-0.927 0.904z"></path>
</symbol>
</defs>
</svg>
